<?xml version="1.0" encoding="UTF-8"?>
<svg id="Layer_1" xmlns="http://www.w3.org/2000/svg" xmlns:i="http://ns.adobe.com/AdobeIllustrator/10.0/" version="1.1" viewBox="0 0 446.5671986 336.7849226">
  <!-- Generator: Adobe Illustrator 30.8.1, SVG Export Plug-In . SVG Version: 2.1.4 Build 1)  -->
  <defs>
    <style>
      .st0 {
        fill: #fff;
      }
    </style>
  </defs>
  <g>
    <path class="st0" d="M103.4802628,158.8650513c0-11.3813782,8.9804535-19.213562,25.3745041-19.213562,16.2886353,0,25.4778595,6.6828918,25.4778595,18.1696777,0,9.1882019-7.2048187,16.7072144-17.855484,17.7510986v.3121338c13.3657684.6263275,20.0486603,8.4585114,20.0486603,18.7960052,0,12.4252472-11.3824005,20.362854-27.8798065,20.362854-17.3345795,0-27.358902-7.7267609-27.358902-19.8398895,0-10.5462646,7.5190201-18.4838715,20.1530457-19.318985v-.3121338c-11.2769852-.5229797-17.9598694-7.8311462-17.9598694-16.7072144l-.0000076.0000153ZM121.4401245,193.8453064c0,8.2497406,1.253685,14.200882,7.4146271,14.200882,5.846756,0,7.5179901-5.9511414,7.5179901-14.200882,0-9.1882019-1.7756195-14.6184235-7.4136047-14.6184235-5.6390076,0-7.5190201,5.8477783-7.5190125,14.6184235ZM128.8547668,172.0210114c4.8028717,0,5.7423553-4.8008118,5.7423553-12.5296326,0-7.8301239-.8350983-12.7394409-5.63797-12.7394409-5.1170654,0-5.9521713,5.7444305-5.9521713,12.9482269,0,8.1463776,1.4614258,12.3208618,5.8477859,12.3208618v-.0000153Z"/>
    <path class="st0" d="M172.0754395,194.5770416c6.3697205,0,10.756073,3.0282745,10.756073,9.9199371,0,6.1599121-3.760025,10.4408417-10.4429169,10.4408417-8.248703,0-10.7550507-5.2214508-10.7550507-10.1287231,0-5.7423553,3.6546021-10.2320709,10.4418793-10.2320709l.0000153.0000153Z"/>
    <path class="st0" d="M218.328537,191.5487671c0-9.9199371-2.296524-14.200882-8.248703-14.200882-4.9072571,0-8.3530884,2.6086578-11.0682068,4.9072571l-5.3258514-1.8810425,3.4458313-38.3206635,1.4624634-1.5647888c7.8311462,1.0438843,25.7910156,4.1755066,28.9236908,4.1755066,2.8195038,0,3.7589874-1.252655,5.5346222-7.6213379l4.8028717.5209045c-1.5658112,16.1852722-3.9677734,21.5100861-10.2331085,21.5100861-1.6702118,0-3.2370605-.3121338-5.3248138-1.1472321l-18.1696777-6.0565643-2.7151184,21.3002777c2.8195038-1.9844055,7.6234131-4.9062195,15.8721161-4.9062195,15.0370026,0,21.615509,9.0838013,21.615509,21.091507,0,16.602829-13.4701538,25.6876678-31.1179047,25.6876678-15.1403656,0-19.8398743-7.3092194-19.8398743-15.1414032,0-5.1160431,3.1326599-10.3374939,9.9199371-10.3374939,5.9521637,0,8.354126,3.5491791,8.354126,8.0409546,0,1.3560028-.3131561,2.8174438-.6263275,4.2809296h-4.2819672c-.4175568.9384613-.7307129,1.8789825-.7307129,2.8195038,0,2.296524,1.5668488,4.2809296,6.6828918,4.2809296,8.4585114,0,11.0682068-6.5795288,11.0682068-17.4379272v.0000305Z"/>
    <path class="st0" d="M347.2753601,140.8007965v9.7111664l-5.4291992.6263275v52.2093964l5.4291992.7317505v9.8145142h-30.6993103v-9.8145142l7.5179749-.7317505v-44.6914215h-.4175415l-15.9765015,55.2376862h-13.6789246l-15.5579224-55.1322632h-.4175415v44.5859985l6.8916626.7317505v9.8145142h-23.1813354v-9.8145142l5.4291992-.7317505v-52.2094116l-5.4291992-.6263275v-9.7111664h31.1168518l12.7394409,47.0933685h.4175415l13.2613831-47.0933685h27.9841919l.0000305.0000153Z"/>
  </g>
  <g>
    <path class="st0" d="M118.7146759,227.9273987c11.18396,0,18.9934082,2.8463745,18.9934082,13.2355499,0,11.2511444-9.1334076,15.2220001-20.3173828,15.2220001h-1.1244965v11.2490845l6.0224533.4650879v6.153717h-22.8319855v-6.153717l4.1031647-.4650879v-33.0878296l-4.1031647-.463028v-6.155777h19.2580032ZM116.2662125,249.8984528h.5953217c4.6323395,0,7.3453903-2.1828461,7.3453903-7.8094482,0-6.2860107-2.3823166-7.5428009-6.9485092-7.5428009h-.9922028v15.3522491Z"/>
    <path class="st0" d="M177.6152344,227.9273987l.463028,15.5527496h-5.8229828c-1.6547089-7.478714-4.4349365-9.0662384-12.4417877-9.0662384h-2.5807495v13.632431h.7276154c3.8385773,0,5.2276611-1.5895844,6.1547394-6.8833923h4.6984863v19.5897675h-4.83078c-.9270935-6.4203644-2.3161621-7.4125671-6.2208862-7.4125671h-.5291748v14.2938843h2.382309c9.6615601,0,12.5079346-2.5797119,13.8308716-10.8522034h5.7578583l-.463028,17.4710083h-37.9868164v-6.0875549l3.7724304-.53125v-33.0216827l-3.7724304-.5291748v-6.155777h36.8612976Z"/>
    <path class="st0" d="M204.9472656,227.1997833c14.0964813,0,21.111145,8.6693573,21.111145,23.4262848,0,15.0235901-6.4854736,24.3544006-21.6403198,24.3544006-15.0225372,0-21.574173-8.5370483-21.574173-23.757019,0-14.5605469,7.8094482-24.0236664,22.1033478-24.0236664ZM204.5503845,232.7581787c-6.8823547,0-8.0740356,6.7510986-8.0740356,18.3991241,0,10.7198944,1.0593872,18.1986237,8.0740356,18.1986237,6.6839142,0,7.7433014-6.8172607,7.7433014-18.465271,0-11.3813782-1.0593872-18.1324768-7.7433014-18.1324768Z"/>
    <path class="st0" d="M249.089859,227.9273987c11.1839752,0,18.9934235,2.8463745,18.9934235,13.2355499,0,11.2511444-9.1334229,15.2220001-20.3173828,15.2220001h-1.1244965v11.2490845l6.0224457.4650879v6.153717h-22.8319855v-6.153717l4.1031647-.4650879v-33.0878296l-4.1031647-.463028v-6.155777h19.2579956ZM246.6414032,249.8984528h.5953217c4.6323395,0,7.3453827-2.1828461,7.3453827-7.8094482,0-6.2860107-2.382309-7.5428009-6.9485016-7.5428009h-.9922028v15.3522491Z"/>
    <path class="st0" d="M292.4387207,227.9273987v6.155777l-4.83078.5953217v32.9555359h2.2500305c6.8823547,0,10.853241-2.4474182,12.4407654-12.5079346h5.8240051l-.5953064,19.1267395h-36.3982544v-6.153717l3.7724304-.53125v-32.889389l-3.7724304-.5291748v-6.2219238h21.3095703l-.0000305.0000153Z"/>
    <path class="st0" d="M347.8303833,227.9273987l.4630127,15.5527496h-5.8229675c-1.6546936-7.478714-4.4338989-9.0662384-12.4417725-9.0662384h-2.5817871v13.632431h.7286377c3.838562,0,5.2276611-1.5895844,6.1547546-6.8833923h4.6984863v19.5897675h-4.83078c-.9270935-6.4203644-2.3161621-7.4125671-6.2208862-7.4125671h-.5302124v14.2938843h2.3833618c9.6615601,0,12.5079346-2.5797119,13.8308716-10.8522034h5.7578735l-.4630127,17.4710083h-37.9868164v-6.0875549l3.7713928-.53125v-33.0216827l-3.7713928-.5291748v-6.155777h36.8612976-.000061Z"/>
  </g>
  <g>
    <path class="st0" d="M46.197197,51.5543861h5.209053c3.362114,0,5.6359062.1550331,6.8213806.463028,1.1844406.3079948,2.0856895.8164978,2.7037468,1.5213737.6170235.7048759,1.0025368,1.4903679,1.1575661,2.3564758.1539993.8661079.231514,2.5652542.231514,5.1015663v9.3763008c0,2.4040222-.1136894,4.0101471-.3390007,4.8204422-.2263451.8102951-.6201248,1.4448929-1.182373,1.9017181s-1.2567863.7772217-2.083622.9591293-2.073288.2728577-3.7372894.2728577h-8.7809753v-26.772892ZM53.1591415,56.1350441v17.6115685c1.0025368,0,1.620594-.2005081,1.852108-.6035919s.347271-1.4965668.347271-3.2825317v-10.4015732c0-1.2133789-.0392761-1.9906044-.115757-2.3316727-.0775146-.3410683-.2542534-.5932541-.5291748-.7524185-.2759552-.1591644-.7937622-.2397804-1.5544472-.2397804Z"/>
    <path class="st0" d="M70.6880188,64.8829498h-6.2674026v-1.4717636c0-1.6970787.195343-3.0076103.5870514-3.9274635.3906784-.9198532,1.1761703-1.7342834,2.3564758-2.4391594,1.1792755-.7048759,2.7120132-1.0583496,4.5971985-1.0583496,2.2593231,0,3.9626007.3989487,5.1098328,1.1989098,1.1462021.7999611,1.8355713,1.7797585,2.0670853,2.943531s.3472672,3.5574532.3472672,7.1851883v11.0134277h-6.4989166v-1.9554596c-.4082489.7834244-.9343262,1.3725433-1.5792542,1.7652893-.644928.3906784-1.413887.5870514-2.3068695.5870514-1.1689377,0-2.2407227-.3286667-3.2163849-.9839325s-1.4634933-2.0918884-1.4634933-4.3078079v-1.8024979c0-1.6433334.2583847-2.7616272.7772217-3.3569489.517807-.5953217,1.8024979-1.2898636,3.8530502-2.0836182,2.1931763-.8599091,3.3672791-1.4386902,3.522316-1.736351.1539993-.2976608.231514-.9033165.231514-1.8190346,0-1.1472321-.0857849-1.8934517-.2563171-2.2407188-.1715698-.347271-.4547577-.5209045-.8516388-.5209045-.4526901,0-.7338181.1467628-.8433685.438221-.1105881.2914581-.1653671,1.0500793-.1653671,2.2737923v2.2985992ZM72.804718,67.8926239c-1.0697174.7834244-1.6898422,1.4386902-1.8603745,1.967865-.1715698.5291748-.2563171,1.2898636-.2563171,2.2820587,0,1.1348267.0744171,1.8686447.2232437,2.199379s.4433899.4961014.8847122.4961014c.4185867,0,.6914368-.1302261.8185654-.3886108.126091-.2583847.1901703-.9405212.1901703-2.0422821v-4.5145111Z"/>
    <path class="st0" d="M88.6633911,51.5543861v26.7728844h-6.8792572v-26.7728882s6.8792572,0,6.8792572.0000038Z"/>
    <path class="st0" d="M97.9404755,51.5543861v26.7728844h-6.8792572v-26.7728882s6.8792572,0,6.8792572.0000038Z"/>
    <path class="st0" d="M106.3080292,64.8829498h-6.2674026v-1.4717636c0-1.6970787.195343-3.0076103.5870514-3.9274635.3906784-.9198532,1.1761703-1.7342834,2.3564758-2.4391594,1.1792755-.7048759,2.7120132-1.0583496,4.5971985-1.0583496,2.2593231,0,3.9626007.3989487,5.1098328,1.1989098,1.1462021.7999611,1.8355713,1.7797585,2.0670853,2.943531s.3472672,3.5574532.3472672,7.1851883v11.0134277h-6.4989166v-1.9554596c-.4082489.7834244-.9343262,1.3725433-1.5792542,1.7652893-.644928.3906784-1.413887.5870514-2.3068695.5870514-1.1689377,0-2.2407227-.3286667-3.2163849-.9839325s-1.4634933-2.0918884-1.4634933-4.3078079v-1.8024979c0-1.6433334.2583847-2.7616272.7772217-3.3569489.517807-.5953217,1.8024979-1.2898636,3.8530502-2.0836182,2.1931763-.8599091,3.3672791-1.4386902,3.522316-1.736351.1539993-.2976608.231514-.9033165.231514-1.8190346,0-1.1472321-.0857849-1.8934517-.2563171-2.2407188-.1715698-.347271-.4547577-.5209045-.8516388-.5209045-.4526901,0-.7338181.1467628-.8433685.438221-.1105881.2914581-.1653671,1.0500793-.1653671,2.2737923v2.2985992ZM108.4247284,67.8926239c-1.0697174.7834244-1.6898422,1.4386902-1.8603745,1.967865-.1715698.5291748-.2563171,1.2898636-.2563171,2.2820587,0,1.1348267.0744171,1.8686447.2232437,2.199379s.4433899.4961014.8847122.4961014c.4185867,0,.6914368-.1302261.8185654-.3886108.126091-.2583847.1901703-.9405212.1901703-2.0422821v-4.5145111Z"/>
    <path class="st0" d="M131.0469055,63.3946495h-5.9201355v-1.1906395c0-1.0149384-.0578766-1.655735-.1736374-1.9265251s-.4051514-.4051476-.8681793-.4051476c-.3751755,0-.6562958.1240234-.8433685.3720741-.1881027.2480507-.2811203.6201248-.2811203,1.1162262,0,.6718025.0465088,1.1658363.140564,1.4800339.0930176.3141975.3741455.6594009.8433685,1.0335426.4681931.3741455,1.4304199.9198532,2.8856506,1.6371307,1.9399567.9487915,3.2132874,1.841774,3.8199768,2.6789398.6056519.8371658.9095154,2.0567474.9095154,3.6546097,0,1.785965-.2315063,3.1336975-.6945343,4.0432205s-1.2381897,1.61026-2.32341,2.1001587c-1.0862503.4898987-2.395752.7358856-3.9274597.7358856-1.6981125,0-3.150238-.2645874-4.3574142-.7937622s-2.0371094-1.2464523-2.4887695-2.149765c-.4526901-.9033127-.6780014-2.2717285-.6780014-4.1010971v-1.0583496h5.9201355v1.3890839c0,1.1803055.0744171,1.9451294.2232437,2.2985992s.4433899.5291748.8847122.5291748c.4733658,0,.8040924-.1178207.9922028-.3555374.1870728-.2377167.2811203-.7358856.2811203-1.4965668,0-1.0480118-.1219559-1.7032776-.3638077-1.967865-.2542496-.2645874-1.5492783-1.0480118-3.8861237-2.3482056-1.9626999-1.1017532-3.1585083-2.1022263-3.5884628-3.0014114s-.644928-1.9657974-.644928-3.1998482c0-1.7528877.231514-3.0448151.6945419-3.8778534s1.2485199-1.4738312,2.3564758-1.9265251,2.3947144-.6780052,3.8613129-.6780052c1.4552307,0,2.6923752.1839714,3.7124863.553978,1.0190659.3700066,1.8024979.8578415,2.3482132,1.4634972s.8764496,1.1679039.9922028,1.6867409.1736298,1.3291359.1736298,2.4308929c0,0,0,1.2733231,0,1.2733154Z"/>
    <path class="st0" d="M408.4951859,63.3946495h-5.9201355v-1.1906395c0-1.0149384-.0578766-1.655735-.1736374-1.9265251s-.4051514-.4051476-.8681793-.4051476c-.3751755,0-.6562958.1240234-.8433685.3720741-.1881027.2480507-.2811203.6201248-.2811203,1.1162262,0,.6718025.0465088,1.1658363.140564,1.4800339.0930176.3141975.3741455.6594009.8433685,1.0335426.4681931.3741455,1.4304199.9198532,2.8856506,1.6371307,1.9399567.9487915,3.2132874,1.841774,3.8199768,2.6789398.6056519.8371658.9095154,2.0567474.9095154,3.6546097,0,1.785965-.2315063,3.1336975-.6945343,4.0432205s-1.2381897,1.61026-2.32341,2.1001587c-1.0862503.4898987-2.395752.7358856-3.9274597.7358856-1.6981125,0-3.150238-.2645874-4.3574142-.7937622s-2.0371094-1.2464523-2.4887695-2.149765c-.4526901-.9033127-.6780014-2.2717285-.6780014-4.1010971v-1.0583496h5.9201355v1.3890839c0,1.1803055.0744171,1.9451294.2232437,2.2985992s.4433899.5291748.8847122.5291748c.4733658,0,.8040924-.1178207.9922028-.3555374.1870728-.2377167.2811203-.7358856.2811203-1.4965668,0-1.0480118-.1219559-1.7032776-.3638077-1.967865-.2542496-.2645874-1.5492783-1.0480118-3.8861237-2.3482056-1.9626999-1.1017532-3.1585083-2.1022263-3.5884628-3.0014114s-.644928-1.9657974-.644928-3.1998482c0-1.7528877.231514-3.0448151.6945419-3.8778534s1.2485199-1.4738312,2.3564758-1.9265251,2.3947144-.6780052,3.8613129-.6780052c1.4552307,0,2.6923752.1839714,3.7124863.553978,1.0190659.3700066,1.8024979.8578415,2.3482132,1.4634972s.8764496,1.1679039.9922028,1.6867409.1736298,1.3291359.1736298,2.4308929c0,0,0,1.2733231,0,1.2733154Z"/>
    <path class="st0" d="M141.5311584,65.048317v4.6137314h-8.7809753v-4.6137314h8.7809753Z"/>
    <path class="st0" d="M143.515564,51.5543861h11.7906494v5.3578835h-4.8287048v5.0767593h4.29953v5.0932999h-4.29953v11.2449417h-6.9619446s0-26.7728882,0-26.7728844Z"/>
    <path class="st0" d="M171.9090424,64.0891876v5.3744202c0,1.9740677-.0992126,3.4210281-.2976532,4.3408813s-.62323,1.7797623-1.2733307,2.5797195c-.6511383.7999649-1.4862366,1.3890839-2.5053101,1.7694244-1.0201111.3803406-2.1911163.5705185-3.5140381.5705185-1.4779663,0-2.7285461-.1632996-3.75383-.4878311s-1.8221283-.8164978-2.3895569-1.4717636c-.5684509-.6552658-.9736023-1.449028-1.2154388-2.381279-.2428894-.9322586-.3638-2.3296051-.3638-4.1920471v-5.6224747c0-2.0402145.2201385-3.6318703.6614685-4.7791023.4402924-1.1472321,1.2340546-2.0670853,2.3812866-2.7616272,1.1461945-.6945419,2.612793-1.0418129,4.3987579-1.0418129,1.498642,0,2.786438.2232437,3.8613129.669735s1.9037781,1.0273399,2.4887695,1.7446213c.5839539.7172775.9839325,1.4552269,1.1989136,2.2159157s.322464,1.9182549.322464,3.472702h-.0000153ZM165.2282257,62.4355202c0-1.1244926-.0609741-1.8335037-.1819-2.1249619-.1219635-.2914581-.3803406-.438221-.7772217-.438221s-.6614685.1467628-.7937622.438221-.1984406,1.0004692-.1984406,2.1249619v9.9054756c0,1.0356064.0661469,1.7115479.1984406,2.0257416s.390686.4712982.7772217.4712982c.3968811,0,.658371-.1426315.7854919-.4299545.1260986-.287323.1901703-.9033127.1901703-1.8521118v-10.1204491Z"/>
    <path class="st0" d="M180.7892456,56.3830948l-.2645874,2.8856506c.9694672-2.0670853,2.3750763-3.1605721,4.2168579-3.2825317v7.7226295c-1.2237091,0-2.1228943.1653671-2.6954803.4960976-.5736237.3307343-.9260559.7916946-1.0583496,1.3808136s-.1984406,1.9492645-.1984406,4.0762939v8.6652222h-6.6808167v-21.9441757h6.6808167Z"/>
    <path class="st0" d="M193.8842316,53.4561043v3.4561653h1.8025055v3.472702h-1.8025055v11.7410431c0,1.4448929.0744171,2.2489853.2232513,2.4143524s.7689514.2480469,1.8603821.2480469v3.5388489h-2.6954803c-1.5213776,0-2.6076202-.0640793-3.2577209-.1901703-.6511383-.126091-1.2237091-.4196167-1.7198181-.876442s-.80513-.9818649-.9260559-1.5709839c-.1219635-.589119-.1819-1.9761353-.1819-4.1589737v-11.1457214h-1.4386902v-3.472702h1.4386902v-3.4561653h6.6973572-.0000153Z"/>
    <path class="st0" d="M229.5373077,51.5543861l-3.0995941,26.7728844h-8.6920929c-.7958221-4.1135025-1.498642-8.7933807-2.1073914-14.0396423-.2780304,2.2489853-.9250183,6.9288712-1.9420319,14.0396423h-8.6424866l-3.1161346-26.7728882h6.763504l.7358856,9.341156.7110748,9.0310974c.2563171-4.6736832.8981476-10.7984543,1.9244537-18.3722534h7.2296295c.0961151.7834244.3493347,3.7269554.7596588,8.8305893l.7689514,10.1865921c.3958435-6.4803162,1.0438843-12.8200607,1.9430542-19.0171852h6.763504l.0000153.0000076Z"/>
    <path class="st0" d="M245.825943,64.0891876v5.3744202c0,1.9740677-.0992126,3.4210281-.2976532,4.3408813s-.62323,1.7797623-1.2733307,2.5797195c-.6511383.7999649-1.4862366,1.3890839-2.5053101,1.7694244-1.0201111.3803406-2.1911163.5705185-3.5140381.5705185-1.4779663,0-2.7285461-.1632996-3.75383-.4878311s-1.8221283-.8164978-2.3895569-1.4717636c-.5684509-.6552658-.9736023-1.449028-1.2154388-2.381279-.2428894-.9322586-.3638-2.3296051-.3638-4.1920471v-5.6224747c0-2.0402145.2201385-3.6318703.6614685-4.7791023.4402924-1.1472321,1.2340546-2.0670853,2.3812866-2.7616272,1.1461945-.6945419,2.612793-1.0418129,4.3987579-1.0418129,1.498642,0,2.786438.2232437,3.8613129.669735s1.9037781,1.0273399,2.4887695,1.7446213c.5839539.7172775.9839325,1.4552269,1.1989136,2.2159157s.322464,1.9182549.322464,3.472702h-.0000153ZM239.1451263,62.4355202c0-1.1244926-.0609741-1.8335037-.1819-2.1249619-.1219635-.2914581-.3803406-.438221-.7772217-.438221s-.6614685.1467628-.7937622.438221-.1984406,1.0004692-.1984406,2.1249619v9.9054756c0,1.0356064.0661469,1.7115479.1984406,2.0257416s.390686.4712982.7772217.4712982c.3968811,0,.658371-.1426315.7854919-.4299545.1260986-.287323.1901703-.9033127.1901703-1.8521118v-10.1204491Z"/>
    <path class="st0" d="M254.706131,56.3830948l-.2645874,2.8856506c.9694672-2.0670853,2.3750763-3.1605721,4.2168427-3.2825317v7.7226295c-1.2237244,0-2.1228943.1653671-2.6954803.4960976-.5736237.3307343-.9260559.7916946-1.0583496,1.3808136s-.1984406,1.9492645-.1984406,4.0762939v8.6652222h-6.6808167v-21.9441757h6.6808319Z"/>
    <path class="st0" d="M267.8011169,53.4561043v3.4561653h1.8024902v3.472702h-1.8024902v11.7410431c0,1.4448929.0744019,2.2489853.2232361,2.4143524s.7689514.2480469,1.8603821.2480469v3.5388489h-2.6954651c-1.5213623,0-2.6076355-.0640793-3.2577209-.1901703-.651123-.126091-1.2237244-.4196167-1.7198181-.876442s-.8051147-.9818649-.9260559-1.5709839c-.1219482-.589119-.1819153-1.9761353-.1819153-4.1589737v-11.1457214h-1.4386902v-3.472702h1.4386902v-3.4561653h6.6973572Z"/>
    <path class="st0" d="M277.7561951,51.5543861v6.0234871c.5725708-.5312424,1.1927185-.9281197,1.8603821-1.1947746.666626-.2645874,1.3807983-.3968811,2.14151-.3968811,1.1679077,0,2.163208.2976608,2.9848633.8929825.8206177.5953217,1.322937,1.2815933,1.5048523,2.0588188s.2728577,2.1973114.2728577,4.258194v15.1310654h-6.6808167v-15.4452591c0-1.2795258-.0640869-2.1001587-.1901855-2.4639664-.1271362-.3638077-.4113464-.5457115-.8516541-.5457115-.4082642,0-.6842041.1881065-.8268433.5622482-.1436768.3741417-.2149658,1.1182938-.2149658,2.2324524v15.6602364h-6.6808167v-26.7728882s6.6808167,0,6.6808167-.0000038Z"/>
    <path class="st0" d="M316.4685669,51.5543861v26.7728844h-6.0855103l-.0082703-18.0745926-2.4226379,18.0745926h-4.3160706l-2.5549316-17.6611786-.0082703,17.6611786h-6.0855103v-26.7728882h9.0083618c.2666626,1.61026.5426025,3.5057755.8268433,5.6927528l.9880676,6.808979,1.5999146-12.5017319h9.0579529l.000061.0000038Z"/>
    <path class="st0" d="M334.0139771,59.6573601h-6.4658508v-1.9844017c0-.9260559-.0826721-1.5151749-.2480469-1.7694244s-.4413147-.3803444-.8268433-.3803444c-.4196167,0-.7358704.1715698-.9508667.5126381-.2149658.3431358-.3224792.8599091-.3224792,1.5565147,0,.8929825.1209106,1.5668488.3627625,2.0174751.2304688.4526901.8857422.9984016,1.9668274,1.6371307,3.0996094,1.8397064,5.0509338,3.3486786,5.8560486,4.5289841.8041077,1.1803055,1.2071838,3.0820236,1.2071838,5.7051544,0,1.9079208-.2232361,3.3135376-.6697388,4.2168503s-1.3095093,1.6619339-2.5879822,2.2737961c-1.2795105.6118546-2.7678223.9177856-4.4649048.9177856-1.8634644,0-3.4541016-.3534698-4.7708435-1.0583496-1.3177795-.7048798-2.1807861-1.6040573-2.5879822-2.6954803-.4082642-1.091423-.6118469-2.6396713-.6118469-4.6468048v-1.7528915h6.4658508v3.2577286c0,1.002533.0909424,1.6474686.2728577,1.9347916s.504364.4299545.9674072.4299545.8071899-.1819,1.0335388-.5457077c.2253113-.3638077.3389893-.9033127.3389893-1.6205978,0-1.5771866-.2149658-2.6065979-.644928-3.0923615-.4413147-.4857635-1.5275879-1.2960587-3.2577209-2.4308929-1.7311707-1.1472321-2.8773804-1.9782028-3.4396362-2.4970398s-1.0283813-1.2340508-1.3973389-2.1497688c-.3699951-.9157181-.5539856-2.083622-.5539856-3.5057755,0-2.0505486.2614746-3.5491867.7854919-4.4979782.5229797-.9487915,1.3694458-1.6888084,2.5383911-2.2241821,1.1679077-.5353737,2.5797119-.8020287,4.2333984-.8020287,1.8076782,0,3.3486633.2914581,4.6220093.8764458s2.1166992,1.3208656,2.5301208,2.2076454.6201172,2.395752.6201172,4.5227814v1.0583534Z"/>
    <path class="st0" d="M348.8101807,51.5543861l3.9812012,26.7728844h-7.1148987l-.3741455-4.8121719h-2.4898071l-.4185791,4.8121719h-7.1976013l3.551239-26.7728882h10.062561l.0000305.0000038ZM345.1204224,68.7690735c-.3524475-3.0324173-.7059021-6.7800407-1.0604248-11.2449417-.7090149,5.1263733-1.15448,8.8760605-1.3363647,11.2449417h2.3967896Z"/>
    <path class="st0" d="M366.4258728,51.5543861v6.0234871c.5725708-.5312424,1.1927185-.9281197,1.8603821-1.1947746.666626-.2645874,1.3807983-.3968811,2.14151-.3968811,1.1679077,0,2.163208.2976608,2.9848633.8929825.8206177.5953217,1.322937,1.2815933,1.5048523,2.0588188s.2728577,2.1973114.2728577,4.258194v15.1310654h-6.6808167v-15.4452591c0-1.2795258-.0640869-2.1001587-.1901855-2.4639664-.1271362-.3638077-.4113464-.5457115-.8516541-.5457115-.4082642,0-.6842041.1881065-.8268433.5622482-.1436768.3741417-.2149658,1.1182938-.2149658,2.2324524v15.6602364h-6.6808167v-26.7728882s6.6808167,0,6.6808167-.0000038Z"/>
    <path class="st0" d="M383.4586792,64.8829498h-6.267395v-1.4717636c0-1.6970787.195343-3.0076103.5870667-3.9274635.390686-.9198532,1.176178-1.7342834,2.3564758-2.4391594,1.1792603-.7048759,2.7120056-1.0583496,4.5971985-1.0583496,2.2593384,0,3.962616.3989487,5.1098328,1.1989098,1.1462097.7999611,1.8355713,1.7797585,2.0670776,2.943531s.3472595,3.5574532.3472595,7.1851883v11.0134277h-6.4989014v-1.9554596c-.4082642.7834244-.9343262,1.3725433-1.5792542,1.7652893-.644928.3906784-1.4138794.5870514-2.3068542.5870514-1.1689453,0-2.2407227-.3286667-3.2163696-.9839325s-1.463501-2.0918884-1.463501-4.3078079v-1.8024979c0-1.6433334.2583923-2.7616272.7772217-3.3569489.5177917-.5953217,1.8024902-1.2898636,3.8530579-2.0836182,2.1931763-.8599091,3.3672791-1.4386902,3.5223083-1.736351.1539917-.2976608.2315063-.9033165.2315063-1.8190346,0-1.1472321-.0857849-1.8934517-.2563171-2.2407188-.1715698-.347271-.4547729-.5209045-.8516541-.5209045-.4526978,0-.7338257.1467628-.8433838.438221-.1105957.2914581-.1653748,1.0500793-.1653748,2.2737923v2.2985992ZM385.5753479,67.8926239c-1.0697021.7834244-1.6898499,1.4386902-1.8603821,1.967865-.1715698.5291748-.2563171,1.2898636-.2563171,2.2820587,0,1.1348267.0744019,1.8686447.2232361,2.199379s.4433899.4961014.8847046.4961014c.4185791,0,.6914368-.1302261.818573-.3886108.1260986-.2583847.1901855-.9405212.1901855-2.0422821v-4.5145111Z"/>
  </g>
  <g>
    <path class="st0" d="M41.5286865,105.5239105h-6.2674026v-1.4717636c0-1.6970749.1953392-3.0076065.5870514-3.9274597.3906784-.9198532,1.1761703-1.7342834,2.3564758-2.4391632,1.1792717-.7048798,2.7120171-1.0583496,4.5971985-1.0583496,2.2593231,0,3.9626007.3989487,5.1098328,1.1989059,1.1461983.7999649,1.8355713,1.7797623,2.0670853,2.9435272s.347271,3.557457.347271,7.1851883v11.0134277h-6.4989166v-1.9554596c-.4082489.7834244-.9343224,1.3725433-1.5792542,1.7652893-.6449318.3906784-1.413887.5870514-2.3068657.5870514-1.1689377,0-2.2407188-.3286667-3.2163849-.9839325s-1.4634972-2.0918884-1.4634972-4.3078079v-1.8024979c0-1.6433334.2583847-2.7616272.7772255-3.3569489.5178032-.5953217,1.8024979-1.2898636,3.8530464-2.0836258,2.1931763-.8599091,3.3672829-1.4386902,3.5223122-1.736351.1539993-.2976608.231514-.9033127.231514-1.8190384,0-1.1472321-.0857849-1.8934479-.2563171-2.2407227-.1715698-.3472672-.4547577-.5209045-.8516388-.5209045-.4526901,0-.7338142.1467667-.8433723.4382248-.1105881.2914581-.1653671,1.0500793-.1653671,2.2737961v2.2985992l.0000038.0000153ZM43.6453819,108.5335922c-1.0697174.7834244-1.6898422,1.4386902-1.8603783,1.967865-.1715698.5291748-.2563171,1.2898636-.2563171,2.2820587,0,1.1348267.0744133,1.8686447.2232437,2.199379s.4433899.4961014.8847122.4961014c.4185829,0,.6914406-.1302261.8185654-.3886108.126091-.2583847.1901703-.9405212.1901703-2.0422821,0,0,0-4.5145111.0000038-4.5145111Z"/>
    <path class="st0" d="M65.6391678,94.0970688v3.4561691h1.8024979v3.472702h-1.8024979v11.7410431c0,1.4448929.0744171,2.2489853.2232437,2.4143524s.768959.2480469,1.8603745.2480469v3.5388489h-2.6954803c-1.5213737,0-2.6076279-.0640793-3.2577248-.1901703-.6511307-.126091-1.2237129-.4196167-1.7198143-.876442s-.80513-.9818649-.9260559-1.5709839c-.1219597-.589119-.1819038-1.9761353-.1819038-4.1589737v-11.1457214h-1.4386902v-3.472702h1.4386902v-3.4561691h6.697361Z"/>
    <path class="st0" d="M84.0279541,104.7301559v5.3744202c0,1.9740677-.0992203,3.4210281-.2976608,4.3408813s-.6232224,1.7797623-1.2733231,2.5797195c-.6511307.7999649-1.4862366,1.3890839-2.5053101,1.7694244-1.0201035.3803406-2.1911087.5705185-3.5140457.5705185-1.4779663,0-2.7285538-.1632996-3.75383-.4878311s-1.8221359-.8164978-2.3895493-1.4717636c-.5684509-.6552658-.9735947-1.449028-1.2154465-2.381279-.2428818-.9322586-.3638077-2.3296051-.3638077-4.1920471v-5.6224747c0-2.0402145.2201462-3.6318665.6614685-4.7790985.4402924-1.1472321,1.2340469-2.0670853,2.381279-2.7616272,1.1462021-.6945419,2.612793-1.0418091,4.3987579-1.0418091,1.4986343,0,2.7864304.2232437,3.8613129.6697388s1.9037857,1.0273438,2.4887695,1.7446213c.5839539.7172775.9839325,1.4552307,1.1989059,2.2159119s.322464,1.9182587.322464,3.472702l.0000153-.0000076ZM77.3471375,103.0764847c0-1.1244965-.0609818-1.8335037-.1819-2.1249619-.1219559-.2914581-.3803406-.4382248-.7772217-.4382248s-.6614685.1467667-.7937622.4382248-.1984406,1.000473-.1984406,2.1249619v9.9054718c0,1.0356064.0661469,1.7115479.1984406,2.0257416s.3906784.4712982.7772217.4712982c.3968811,0,.6583633-.1426315.7854919-.4299545.126091-.287323.1901703-.9033127.1901703-1.8521118,0,0,0-10.1204529,0-10.1204453Z"/>
    <path class="st0" d="M93.2719574,94.0970688v3.4561691h1.8024979v3.472702h-1.8024979v11.7410431c0,1.4448929.0744171,2.2489853.2232437,2.4143524s.768959.2480469,1.8603745.2480469v3.5388489h-2.6954803c-1.5213776,0-2.6076279-.0640793-3.2577286-.1901703-.6511307-.126091-1.2237167-.4196167-1.7198181-.876442s-.80513-.9818649-.9260559-1.5709839c-.1219559-.589119-.1819-1.9761353-.1819-4.1589737v-11.1457214h-1.4386902v-3.472702h1.4386902v-3.4561691h6.6973648Z"/>
    <path class="st0" d="M102.5159607,105.5239105h-6.2674026v-1.4717636c0-1.6970749.195343-3.0076065.5870514-3.9274597.3906784-.9198532,1.1761703-1.7342834,2.3564758-2.4391632,1.1792755-.7048798,2.7120132-1.0583496,4.5971985-1.0583496,2.2593231,0,3.9626007.3989487,5.1098328,1.1989059,1.1462021.7999649,1.8355713,1.7797623,2.0670853,2.9435272s.3472672,3.557457.3472672,7.1851883v11.0134277h-6.4989166v-1.9554596c-.4082489.7834244-.9343262,1.3725433-1.5792542,1.7652893-.644928.3906784-1.413887.5870514-2.3068695.5870514-1.1689377,0-2.2407227-.3286667-3.2163849-.9839325s-1.4634933-2.0918884-1.4634933-4.3078079v-1.8024979c0-1.6433334.2583847-2.7616272.7772217-3.3569489.517807-.5953217,1.8024979-1.2898636,3.8530502-2.0836258,2.1931763-.8599091,3.3672791-1.4386902,3.522316-1.736351.1539993-.2976608.231514-.9033127.231514-1.8190384,0-1.1472321-.0857849-1.8934479-.2563171-2.2407227-.1715698-.3472672-.4547577-.5209045-.8516388-.5209045-.4526901,0-.7338181.1467667-.8433685.4382248-.1105881.2914581-.1653671,1.0500793-.1653671,2.2737961v2.2986145ZM104.6326599,108.5335922c-1.0697174.7834244-1.6898422,1.4386902-1.8603745,1.967865-.1715698.5291748-.2563171,1.2898636-.2563171,2.2820587,0,1.1348267.0744171,1.8686447.2232437,2.199379s.4433899.4961014.8847122.4961014c.4185867,0,.6914368-.1302261.8185654-.3886108.126091-.2583847.1901703-.9405212.1901703-2.0422821v-4.5145111Z"/>
    <path class="st0" d="M120.491333,92.1953506v26.7728882h-6.8792572v-26.7728882h6.8792572Z"/>
    <path class="st0" d="M135.6554718,97.0240631l-.1157532,1.9389267c.5953217-.7834244,1.2505798-1.3684082,1.967865-1.757019.7162476-.3844757,1.498642-.5787811,2.3482056-.5787811,1.035614,0,1.9316864.2790527,2.6872101.8351059.7544861.5560455,1.2257843,1.1989059,1.4138794,1.9265213.1870728.7276154.2811279,1.9616623.2811279,3.704216v9.2440033c0,1.9947357-.1188507,3.4148254-.355545,4.258194-.2377167.8433685-.7224426,1.5151749-1.4552307,2.0174713-.7338104.5023041-1.6185303.7524185-2.6541443.7524185-.826828,0-1.5937195-.1943054-2.2985992-.5787811-.7059021-.3886108-1.3508453-.9611969-1.9347839-1.7239456v5.0312881h-6.6808167v-25.0696106h6.7965698l.0000153-.0000076ZM137.5571899,103.4072189c0-1.3560104-.0496063-2.1766434-.1488342-2.4639664s-.3751831-.4299545-.826828-.4299545c-.44133,0-.7255402.1653671-.8516388.4961014-.127121.3307343-.1901703,1.1306992-.1901703,2.3978195v9.0951767c0,1.322937.0661469,2.149765.1984406,2.4804993s.4185791.4961014.8599091.4961014c.4299469,0,.6966095-.1508942.8020325-.4547577.1043854-.3038635.1571045-1.0397415.1571045-2.2076492v-9.4093704h-.0000153Z"/>
    <path class="st0" d="M161.5519104,104.7301559v5.3744202c0,1.9740677-.0992126,3.4210281-.2976532,4.3408813s-.62323,1.7797623-1.2733307,2.5797195c-.6511383.7999649-1.4862366,1.3890839-2.5053101,1.7694244-1.0201111.3803406-2.1911163.5705185-3.5140381.5705185-1.4779663,0-2.7285461-.1632996-3.75383-.4878311s-1.8221283-.8164978-2.3895569-1.4717636c-.5684509-.6552658-.9736023-1.449028-1.2154388-2.381279-.2428894-.9322586-.3638-2.3296051-.3638-4.1920471v-5.6224747c0-2.0402145.2201385-3.6318665.6614685-4.7790985.4402924-1.1472321,1.2340546-2.0670853,2.3812866-2.7616272,1.1461945-.6945419,2.612793-1.0418091,4.3987579-1.0418091,1.498642,0,2.786438.2232437,3.8613129.6697388s1.9037781,1.0273438,2.4887695,1.7446213c.5839539.7172775.9839325,1.4552307,1.1989136,2.2159119s.322464,1.9182587.322464,3.472702l-.0000153-.0000076ZM154.8710938,103.0764847c0-1.1244965-.0609741-1.8335037-.1819-2.1249619-.1219635-.2914581-.3803406-.4382248-.7772217-.4382248s-.6614685.1467667-.7937622.4382248-.1984406,1.000473-.1984406,2.1249619v9.9054718c0,1.0356064.0661469,1.7115479.1984406,2.0257416s.390686.4712982.7772217.4712982c.3968811,0,.658371-.1426315.7854919-.4299545.1260986-.287323.1901703-.9033127.1901703-1.8521118,0,0,0-10.1204529,0-10.1204453Z"/>
    <path class="st0" d="M170.5478668,97.0240631l-.1157532,1.9389267c.5953217-.7834244,1.2505798-1.3684082,1.967865-1.757019.7162476-.3844757,1.498642-.5787811,2.3482056-.5787811,1.035614,0,1.9316864.2790527,2.6872101.8351059.7544861.5560455,1.2257843,1.1989059,1.4138794,1.9265213.1870728.7276154.2811279,1.9616623.2811279,3.704216v9.2440033c0,1.9947357-.1188507,3.4148254-.355545,4.258194-.2377167.8433685-.7224426,1.5151749-1.4552307,2.0174713-.7338104.5023041-1.6185303.7524185-2.6541443.7524185-.826828,0-1.5937195-.1943054-2.2985992-.5787811-.7059021-.3886108-1.3508453-.9611969-1.9347839-1.7239456v5.0312881h-6.6808167v-25.0696106h6.7965698l.0000153-.0000076ZM172.449585,103.4072189c0-1.3560104-.0496063-2.1766434-.1488342-2.4639664s-.3751831-.4299545-.826828-.4299545c-.44133,0-.7255402.1653671-.8516388.4961014-.127121.3307343-.1901703,1.1306992-.1901703,2.3978195v9.0951767c0,1.322937.0661469,2.149765.1984406,2.4804993s.4185791.4961014.8599091.4961014c.4299469,0,.6966095-.1508942.8020325-.4547577.1043854-.3038635.1571045-1.0397415.1571045-2.2076492v-9.4093704h-.0000153Z"/>
    <path class="st0" d="M196.6262207,97.0240631v21.9441757h-6.7965698l.1157532-1.8231659c-.463028.7400131-1.0335388,1.2939987-1.7115479,1.666069-.678009.3679428-1.4583282.553978-2.3399353.553978-1.0035706,0-1.8355713-.175705-2.4970398-.5291748s-1.149292-.8206329-1.463501-1.4056168-.5105743-1.1927109-.5870514-1.827301c-.0775146-.6345978-.1157532-1.8934479-.1157532-3.7786331v-14.8003311h6.6808167v14.9326248c0,1.7094803.0516815,2.7223511.1571045,3.0427475.1043854.3203964.3886108.4795609.8516388.4795609.4960938,0,.7906647-.1653671.8847198-.4961014.0930176-.3307343.140564-1.3952789.140564-3.1915817v-14.7672577h6.6808167l-.0000153.0000076Z"/>
    <path class="st0" d="M205.9032898,92.1953506v26.7728882h-6.8792572v-26.7728882h6.8792572Z"/>
    <path class="st0" d="M214.2708588,105.5239105h-6.267395v-1.4717636c0-1.6970749.195343-3.0076065.5870514-3.9274597.390686-.9198532,1.176178-1.7342834,2.3564758-2.4391632,1.1792755-.7048798,2.7120209-1.0583496,4.5971985-1.0583496,2.2593231,0,3.9626007.3989487,5.1098328,1.1989059,1.1461945.7999649,1.8355713,1.7797623,2.0670776,2.9435272s.3472748,3.557457.3472748,7.1851883v11.0134277h-6.4989166v-1.9554596c-.4082489.7834244-.9343262,1.3725433-1.5792542,1.7652893-.644928.3906784-1.4138794.5870514-2.3068695.5870514-1.1689301,0-2.2407227-.3286667-3.2163849-.9839325s-1.463501-2.0918884-1.463501-4.3078079v-1.8024979c0-1.6433334.2583923-2.7616272.7772217-3.3569489.517807-.5953217,1.8025055-1.2898636,3.8530426-2.0836258,2.1931763-.8599091,3.3672791-1.4386902,3.5223083-1.736351.1539917-.2976608.2315063-.9033127.2315063-1.8190384,0-1.1472321-.0857849-1.8934479-.2563171-2.2407227-.1715698-.3472672-.4547577-.5209045-.8516388-.5209045-.4526978,0-.7338104.1467667-.8433685.4382248-.1105957.2914581-.1653595,1.0500793-.1653595,2.2737961v2.2985992l.0000153.0000153ZM216.3875427,108.5335922c-1.0697174.7834244-1.6898346,1.4386902-1.8603821,1.967865-.1715698.5291748-.2563171,1.2898636-.2563171,2.2820587,0,1.1348267.0744171,1.8686447.2232513,2.199379s.4433899.4961014.8847198.4961014c.4185791,0,.6914368-.1302261.818573-.3886108.1260986-.2583847.1901703-.9405212.1901703-2.0422821v-4.5145111h-.0000153Z"/>
    <path class="st0" d="M232.4115906,94.0970688v3.4561691h1.8025055v3.472702h-1.8025055v11.7410431c0,1.4448929.0744171,2.2489853.2232513,2.4143524s.7689514.2480469,1.8603821.2480469v3.5388489h-2.6954803c-1.5213776,0-2.6076355-.0640793-3.2577209-.1901703-.6511383-.126091-1.2237091-.4196167-1.7198181-.876442s-.80513-.9818649-.9260559-1.5709839c-.1219635-.589119-.1819-1.9761353-.1819-4.1589737v-11.1457214h-1.4386902v-3.472702h1.4386902v-3.4561691h6.6973572-.0000153Z"/>
    <path class="st0" d="M242.5651093,92.1953506v3.4892426h-6.8792572v-3.4892426h6.8792572ZM242.5651093,97.0240631v21.9441757h-6.8792572v-21.9441757h6.8792572Z"/>
    <path class="st0" d="M260.0774536,104.7301559v5.3744202c0,1.9740677-.0992126,3.4210281-.2976685,4.3408813s-.62323,1.7797623-1.2733154,2.5797195c-.651123.7999649-1.4862366,1.3890839-2.5053101,1.7694244-1.0201111.3803406-2.1911163.5705185-3.5140381.5705185-1.4779663,0-2.7285461-.1632996-3.75383-.4878311s-1.8221283-.8164978-2.3895569-1.4717636c-.5684509-.6552658-.9736023-1.449028-1.2154388-2.381279-.2428894-.9322586-.3638-2.3296051-.3638-4.1920471v-5.6224747c0-2.0402145.2201385-3.6318665.6614685-4.7790985.4402924-1.1472321,1.2340546-2.0670853,2.3812866-2.7616272,1.1461945-.6945419,2.612793-1.0418091,4.3987579-1.0418091,1.498642,0,2.786438.2232437,3.8613129.6697388,1.0748901.4464951,1.9037781,1.0273438,2.4887695,1.7446213.5839539.7172775.9839478,1.4552307,1.1989136,2.2159119s.3224792,1.9182587.3224792,3.472702l-.0000305-.0000076ZM253.396637,103.0764847c0-1.1244965-.0609741-1.8335037-.1819-2.1249619-.1219635-.2914581-.3803406-.4382248-.7772217-.4382248s-.6614685.1467667-.7937622.4382248-.1984406,1.000473-.1984406,2.1249619v9.9054718c0,1.0356064.0661469,1.7115479.1984406,2.0257416s.390686.4712982.7772217.4712982c.3968811,0,.658371-.1426315.7854919-.4299545.1260986-.287323.1901703-.9033127.1901703-1.8521118,0,0,0-10.1204529,0-10.1204453Z"/>
    <path class="st0" d="M269.0734253,97.0240631l-.1157532,2.0216064c.4847412-.80616,1.0769653-1.4097519,1.7776794-1.8149033.699707-.4010162,1.506897-.6035919,2.4226379-.6035919,1.1462097,0,2.0836182.2707901,2.8112488.8102951s1.1958008,1.2216492,1.4056091,2.0422821c.2087708.8206329.314209,2.1911087.314209,4.1093674v15.3791122h-6.6808167v-15.1972122c0-1.5110397-.0496216-2.4308929-.1488342-2.7616272s-.3751831-.4961014-.8268433-.4961014c-.4743958,0-.7720642.1901703-.8929749.5705185-.1219482.3803406-.1819153,1.3973465-.1819153,3.0510178v14.8334045h-6.6808167v-21.9441757s6.7965698,0,6.7965698.0000076Z"/>
    <path class="st0" d="M301.0884399,108.384758h-8.6486816v4.7460251c0,.9922028.0713196,1.630928.2149658,1.9182587.1426392.287323.4185791.4299545.8268433.4299545.5064392,0,.8454285-.1901703,1.0169983-.5705185.1705322-.3803406.2563171-1.1162262.2563171-2.2076492v-2.8939209h6.3335571v1.6205978c0,1.3560104-.0857849,2.3978195-.2563171,3.1254349-.1715698.7276154-.5705261,1.504837-1.1989136,2.3316727s-1.4252625,1.4469604-2.3895569,1.8603745c-.965332.413414-2.1745605.6201248-3.6297913.6201248-1.4118042,0-2.6572266-.2046432-3.7373047-.6118546-1.0810852-.4072189-1.9213562-.9673996-2.5218506-1.6784744-.601532-.7110748-1.0169983-1.4944992-1.2485046-2.3482056s-.3472595-2.0980911-.3472595-3.7290192v-6.3996964c0-1.9182587.2583923-3.4313583.7772217-4.5393219.5177917-1.1079559,1.366333-1.9575272,2.5466614-2.5466461,1.1792603-.589119,2.5352783-.8847122,4.0680237-.8847122,1.8738098,0,3.4199829.3555374,4.6385498,1.0666199,1.2174988.7110748,2.0722656,1.6536713,2.5631714,2.827774.4898987,1.1741028.7358704,2.8257065.7358704,4.9527359,0,0,0,2.9104538,0,2.9104462ZM294.3910828,104.8128357v-1.6040573c0-1.1348267-.0609741-1.8686447-.1819153-2.199379-.1219482-.3307343-.3699951-.4961014-.7441406-.4961014-.4630127,0-.7503662.140564-.8598938.4216843-.1105957.2811203-.1653748,1.0397415-.1653748,2.2737961v1.6040573h1.9513245Z"/>
    <path class="st0" d="M318.0385132,105.3089371h-6.3004761v-2.5301132c0-.8826447-.0723572-1.4800339-.2149658-1.7942276-.1436768-.3141937-.4082642-.4712982-.7937622-.4712982-.3865356,0-.644928.1384964-.7772217.413414s-.1984253.8929825-.1984253,1.8521118v10.3519592c0,.7834244.0992126,1.3704758.2976685,1.7611542s.4898987.5870514.8764343.5870514c.4516602,0,.7575989-.2046432.9177856-.6118546.1591797-.4072189.2397766-1.1803055.2397766-2.3151321v-2.612793h5.9532166c-.0113831,1.7528915-.0744019,3.0675507-.1901855,3.9440002s-.4857788,1.7756271-1.1079712,2.6954803c-.62323.9198532-1.436615,1.6143951-2.4391479,2.0836182-1.0035706.4692307-2.2438354.7028122-3.7207642.7028122-1.8851929,0-3.3796692-.322464-4.4814453-.9673996-1.1027832-.644928-1.8831177-1.5482483-2.3399353-2.7120132-.4578552-1.1637726-.6862793-2.8133011-.6862793-4.9527359v-6.2343292c0-1.862442.1870728-3.2680588.5622559-4.2168579.3741455-.9487915,1.1741028-1.7942276,2.3978271-2.5383835s2.7120056-1.1162262,4.4649048-1.1162262c1.7415161,0,3.2298279.3700104,4.4649048,1.1079559,1.2340393.7379532,2.0557251,1.6702042,2.4639587,2.7947006.4072266,1.1244965.6118469,2.7182159.6118469,4.7791061Z"/>
    <path class="st0" d="M326.9021912,92.1953506v26.7728882h-6.8792725v-26.7728882h6.8792725Z"/>
    <path class="st0" d="M336.1792603,92.1953506v3.4892426h-6.8792725v-3.4892426h6.8792725ZM336.1792603,97.0240631v21.9441757h-6.8792725v-21.9441757h6.8792725Z"/>
    <path class="st0" d="M345.3736572,97.0240631l-.1157532,1.9389267c.5953064-.7834244,1.2505798-1.3684082,1.967865-1.757019.7162476-.3844757,1.4986267-.5787811,2.3482056-.5787811,1.035614,0,1.9317017.2790527,2.6872253.8351059.7544861.5560455,1.225769,1.1989059,1.4138794,1.9265213.1870728.7276154.2811279,1.9616623.2811279,3.704216v9.2440033c0,1.9947357-.118866,3.4148254-.3555298,4.258194-.2377014.8433685-.7224426,1.5151749-1.4552307,2.0174713-.7338257.5023041-1.6185303.7524185-2.6541443.7524185-.8268433,0-1.5937195-.1943054-2.298584-.5787811-.7059021-.3886108-1.3508301-.9611969-1.9347839-1.7239456v5.0312881h-6.6808167v-25.0696106h6.7965698l-.0000305-.0000076ZM347.2753601,103.4072189c0-1.3560104-.0496216-2.1766434-.1488342-2.4639664s-.3751831-.4299545-.8268433-.4299545c-.4413147,0-.7255554.1653671-.8516541.4961014-.1271362.3307343-.1901855,1.1306992-.1901855,2.3978195v9.0951767c0,1.322937.0661316,2.149765.1984253,2.4804993s.4185791.4961014.8598938.4961014c.4299622,0,.6965942-.1508942.8020325-.4547577.1044006-.3038635.1571045-1.0397415.1571045-2.2076492v-9.4093704h.000061Z"/>
    <path class="st0" d="M369.7983398,104.035614h-5.9201355v-1.1906433c0-1.0149384-.0578918-1.6557388-.173645-1.9265213s-.4051514-.4051514-.8681641-.4051514c-.3751831,0-.656311.1240234-.8433838.3720779-.1881104.2480469-.2811279.6201248-.2811279,1.1162262,0,.6718063.0465088,1.1658325.140564,1.4800339.0930176.3141937.3741455.6594009.8433838,1.0335464.4682007.3741455,1.4304199.9198532,2.8856506,1.6371307,1.9399719.9487915,3.2132874,1.841774,3.8199768,2.6789398.6056519.8371658.9095154,2.0567474.9095154,3.6546097,0,1.785965-.2315063,3.1336975-.6945496,4.0432205s-1.2381897,1.61026-2.3233948,2.1001587c-1.0862427.4898987-2.395752.7358856-3.9274597.7358856-1.6981201,0-3.150238-.2645874-4.3574219-.7937622s-2.0371094-1.2464523-2.4887695-2.149765c-.4526978-.9033127-.678009-2.2717285-.678009-4.1010971v-1.0583496h5.9201355v1.3890839c0,1.1803055.0744019,1.9451294.2232361,2.2985992s.4433899.5291748.8847046.5291748c.4733582,0,.8041077-.1178207.9921875-.3555374.1870728-.2377167.2811279-.7358856.2811279-1.4965668,0-1.0480118-.1219482-1.7032776-.3638-1.967865-.2542419-.2645874-1.5492859-1.0480118-3.8861084-2.3482056-1.9627075-1.1017532-3.1585083-2.1022263-3.5884705-3.0014114s-.644928-1.9657974-.644928-3.1998444c0-1.7528915.2315063-3.0448151.6945496-3.8778534s1.2485046-1.4738312,2.3564758-1.9265213,2.3947144-.6780014,3.8613281-.6780014c1.4552307,0,2.6923828.1839676,3.7124939.553978,1.0190735.3700104,1.8024902.8578415,2.3482056,1.4634933s.8764343,1.1679001.9921875,1.6867447.173645,1.3291321.173645,2.4308929v1.2733231-.0000229Z"/>
    <path class="st0" d="M378.9761963,92.1953506v3.4892426h-6.8792725v-3.4892426h6.8792725ZM378.9761963,97.0240631v21.9441757h-6.8792725v-21.9441757h6.8792725Z"/>
    <path class="st0" d="M388.1705933,97.0240631l-.1157532,2.0216064c.4847412-.80616,1.0769653-1.4097519,1.7776794-1.8149033.699707-.4010162,1.506897-.6035919,2.4226379-.6035919,1.1462097,0,2.0836182.2707901,2.8112488.8102951s1.1958008,1.2216492,1.4056091,2.0422821c.2087708.8206329.314209,2.1911087.314209,4.1093674v15.3791122h-6.6808167v-15.1972122c0-1.5110397-.0496216-2.4308929-.1488342-2.7616272s-.3751831-.4961014-.8268433-.4961014c-.4743958,0-.7720642.1901703-.8929749.5705185-.1219482.3803406-.1819153,1.3973465-.1819153,3.0510178v14.8334045h-6.6808167v-21.9441757s6.7965698,0,6.7965698.0000076Z"/>
    <path class="st0" d="M414.2654724,97.0240631v16.9004898c0,2.2820587-.0527039,3.7558975-.1571045,4.4235611-.1054077.6676712-.4775085,1.3725433-1.1162109,2.1166992-.6397705.7441483-1.5296326,1.3125992-2.6706848,1.7032776s-2.5776672.5870514-4.3078003.5870514c-2.1280518,0-3.8365173-.3617401-5.1263733-1.0831528s-1.9575195-2.1415024-2.000946-4.258194h6.4823914c0,.9694595.3524475,1.4552307,1.0583496,1.4552307.5064392,0,.8433838-.1488266,1.008728-.4464874s.2480469-.9219208.2480469-1.8707123v-1.6557388c-.5736084.518837-1.1772156.9115829-1.8107605,1.1782379-.6345825.2645874-1.2981262.3968811-1.9926758.3968811-1.2019958,0-2.1911011-.2418518-2.9683228-.7276154s-1.3095093-1.1224289-1.5957947-1.9099884c-.287323-.7875595-.4299622-1.9099884-.4299622-3.3652115v-7.9706802c0-2.0836182.3741455-3.5822601,1.1244812-4.4979782.7493286-.9157181,1.8903503-1.3725433,3.4230957-1.3725433.8371582,0,1.6009521.1715698,2.2903442.5126343.6883545.3431396,1.3032837.8578415,1.8438416,1.5420456l.4795532-1.6577988s6.217804,0,6.217804-.0000076ZM407.5681152,102.8449707c0-1.002533-.0578918-1.6433334-.173645-1.9182587s-.3720703-.413414-.7689514-.413414c-.3865356,0-.6593933.1570969-.818573.4712982-.1601868.3141937-.2397766.9343262-.2397766,1.8603745v7.3753586c0,.9818649.0599365,1.6185303.1819153,1.9099884.1209106.2914581.3741455.4382248.7606812.4382248.4402771,0,.7276001-.175705.8598938-.5291748s.1984253-1.1513672.1984253-2.3978195v-6.7965775h.0000305Z"/>
  </g>
</svg>