<?xml version="1.0" encoding="UTF-8"?>
<svg id="Layer_1" xmlns="http://www.w3.org/2000/svg" xmlns:i="http://ns.adobe.com/AdobeIllustrator/10.0/" version="1.1" viewBox="0 0 375.7408088 177.237707">
  <defs>
    <style>
      .st0 {
        fill: #414042;
      }
      .st1 {
        fill: #095270;
      }
      .st2 {
        fill: #6ea9db;
      }
    </style>
  </defs>
  <g>
    <polygon class="st2" points="11.1945325 15.0305334 11.1945325 106.7697531 38.4023054 106.7697531 38.4023054 73.6514937 75.2618952 73.6514937 75.2618952 106.7697531 102.469671 106.7697531 102.469671 46.8806358 38.4023054 46.8806358 38.4023054 15.0305334 11.1945325 15.0305334"/>
    <g>
      <path class="st1" d="M102.34601,15.0303877c.2474621,14.0855958-11.1307181,27.6630458-27.0844061,27.4067712V15.0303877h27.0844061Z"/>
      <path class="st0" d="M307.6436107,82.3970157h-2.1030832v2.7514729h2.1030832c.9538812-.013216,1.7219655-.5962597,1.7219655-1.3827086,0-.7857149-.5698278-1.3687643-1.7219655-1.3687643M307.8418896,80.810902c.9303512-.0433231,1.8350436.3113459,2.4871141.9766379.3840309.3928547.5698054.9758984.5698054,1.7623473.0492112,1.2439268-.7335513,2.3696325-1.9172639,2.7558819l2.3013173,3.1450615h-1.9172863l-2.1023437-2.9416564h-1.722705v2.9416564h-1.5324935v-8.6399286h3.8338555ZM307.2632325,78.6512854c-3.6392518,0-6.7050006,2.9460654-6.7050006,6.8768418,0,3.9359194,3.0657488,6.8775813,6.7050006,6.8775813,3.6355766,0,6.7006084-2.941662,6.7006084-6.8775813,0-3.9307764-3.0650317-6.8768418-6.7006084-6.8768418M307.2632325,77.0791217c4.3992911,0,8.03926,3.5423252,8.03926,8.2463344,0,4.7084183-3.6399689,8.2507435-8.03926,8.2507435-4.5887183,0-8.0385205-3.7325087-8.0385205-8.2507435,0-4.5145541,3.6348371-8.2463344,8.0385205-8.2463344M285.3909703,91.9239948c-.3708094-3.8074123-2.5972566-6.8504043-6.4311122-6.8504043-3.8338331,0-6.0595409,2.7911208-6.5544538,6.8504043h13.1089525-.1233865ZM279.7022612,102.4584529c2.8440072,0,4.8229644-1.144059,6.925308-3.1759025l3.4630238,3.1759025c-2.3498113,2.9152244-5.6887315,4.9470679-10.3883318,4.9470679-7.4209605,0-13.109692-5.455208-13.109692-13.57745,0-8.1185669,5.1945132-13.701548,12.4913926-13.701548,7.2961398,0,12.2432078,6.4707656,12.2432078,14.0811867v1.6514709h-18.6743199c.6182995,4.315558,3.5863879,6.5992726,7.2961398,6.5992726h-.2467282ZM246.1867373,107.2770193c-3.5863879,0-7.6677111-1.3951963-10.7599031-3.930782l2.597279-4.0636869c2.7206207,2.1596166,5.6887091,3.1759025,8.2859881,3.1759025s3.9579367-1.144059,3.9579367-2.7918547c0-2.1596166-2.7213602-2.7911264-5.6894486-3.8074179-3.7097519-1.1433251-7.9151564-2.6670228-7.9151564-7.6140907,0-5.0755749,3.9579367-8.1185669,9.0283688-8.1185669s6.6786023,1.13965,9.3992006,2.9152244l-2.3497889,4.187051c-2.4731754-1.5192942-5.0704321-2.4114821-7.1727757-2.4114821s-3.5863879,1.144059-3.5863879,2.6677567c0,2.02744,2.7206431,2.7918603,5.6887315,3.8074179,3.7097519,1.13965,7.9151564,2.9152188,7.9151564,7.6104211,0,5.5829811-4.2054044,8.2507435-9.3992006,8.2507435v.1233641ZM212.0485218,101.9503127c3.4630238,0,5.4412414-2.2837146,5.4412414-6.3466732v-14.8456071h5.8128351v16.625585c0,6.0859895-4.2046873,10.0219033-10.7591636,10.0219033h-.9898483c-6.5544763,0-10.7591636-3.9359138-10.7591636-10.0219033v-16.625585h5.8120956v14.8456071c0,4.0629586,1.9789796,6.3466732,5.4420033,6.3466732M175.5648983,85.4532292c-4.6996115,0-7.6676999,3.8074123-7.6676999,8.3748415,0,4.5666953,3.2155561,8.5026146,7.791064,8.5026146,4.5762362,0,7.6676999-3.8074123,7.6676999-8.3748415s-3.2155561-8.5026146-7.791064-8.5026146M175.5648983,107.4055207c-7.791064,0-13.4805238-6.0911269-13.4805238-13.57745,0-7.4870571,5.8128239-13.701548,13.6038879-13.701548,7.7917923,0,13.4805126,6.0867234,13.4805126,13.5730466,0,7.4870571-5.8128127,13.7059515-13.6038767,13.7059515M133.5115152,106.7688735h-5.8128351v-37.1768089h5.8128351v14.0855958c1.6081366-1.903342,3.9579367-3.5511377,7.9151564-3.5511377,5.693135,0,9.0327835,3.9307764,9.0327835,10.0219033v16.6204476h-5.8128239v-14.8448787c0-4.0592834-1.9833718-6.3422585-5.4463956-6.3422585-3.4622843,0-5.6887203,2.4114821-5.6887203,6.4700317v14.7171056ZM331.649052,15.0303877v3.5555468h14.5929967v40.0964368h3.7104915V18.5859345h14.5937362v-3.5555468h-33.021328.1241036ZM281.4337731,15.0303877v3.5555468h14.5929967v40.0964368h3.7104915V18.5859345h14.5930191v-3.5555468h-33.0206109.1241036ZM238.1474774,43.0730722c.3715489-.8877844,10.0175-22.5874709,10.6365166-23.8556279.4941959,1.268157,10.1408641,22.9678435,10.5116959,23.8556279h-21.1482125ZM250.5155059,14.650749h-3.4630014l-19.7926865,44.0316223h3.9579367s5.1989503-11.6733797,5.3223144-12.0581558h24.3637686c.1233641.3847761,5.3178997,12.0581558,5.3178997,12.0581558h4.0813008l-19.7875324-44.0316223ZM215.387442,15.0303877s-15.0879321,22.2078322-15.5828675,22.839342c-.4941959-.7592774-15.5828675-22.839342-15.5828675-22.839342h-4.6996003s18.1801241,26.2671156,18.3042277,26.5189868v17.2571004h3.7097519v-17.3804645c0-.1285071,18.3034882-26.3956227,18.3034882-26.3956227h-4.4521326ZM157.6322307,15.0303877v19.9204481h-26.2230592V15.0303877h-3.7104915v43.7760872h3.7104915v-20.1723248h26.2230592v20.1723248h3.7104803V15.0303877h-3.7104803Z"/>
    </g>
    <rect class="st2" x="11.1945325" y="128.356676" width="353.3515422" height="2.3333286"/>
  </g>
  <g>
    <path class="st0" d="M19.6276278,149.3955517c.890625.453125,1.5732422,1.1015625,2.0483398,1.9433594.4746094.8427734.7119141,1.8349609.7119141,2.9765625s-.2373047,2.1308594-.7119141,2.9677734c-.4750977.8378906-1.1577148,1.4775391-2.0483398,1.9199219s-1.9438477.6640625-3.159668.6640625h-3.472168v-11.1523438h3.472168c1.2158203,0,2.269043.2275391,3.159668.6806641ZM19.7638582,157.5234814c.7573242-.7626953,1.1362305-1.8320312,1.1362305-3.2080078,0-1.3867188-.3818359-2.4697266-1.144043-3.2480469-.7626953-.7783203-1.8588867-1.1679688-3.2880859-1.1679688h-2.0161133v8.7675781h2.0161133c1.4399414,0,2.5385742-.3808594,3.2958984-1.1435547Z"/>
    <path class="st0" d="M40.8200106,157.3867627h-4.8642578l-.8959961,2.4804688h-1.5361328l4.0322266-11.0878906h1.6801758l4.015625,11.0878906h-1.5356445l-.8959961-2.4804688ZM40.403995,156.2031689l-2.0161133-5.6318359-2.0161133,5.6318359h4.0322266Z"/>
    <path class="st0" d="M56.3873934,158.6836377h3.9038086v1.1835938h-5.3598633v-11.1523438h1.4560547v9.96875Z"/>
    <path class="st0" d="M73.2194247,158.6836377h3.9038086v1.1835938h-5.3598633v-11.1523438h1.4560547v9.96875Z"/>
    <path class="st0" d="M95.1876864,157.3867627h-4.8642578l-.8959961,2.4804688h-1.5361328l4.0322266-11.0878906h1.6801758l4.015625,11.0878906h-1.5356445l-.8959961-2.4804688ZM94.7716707,156.2031689l-2.0161133-5.6318359-2.0161133,5.6318359h4.0322266Z"/>
    <path class="st0" d="M110.8590731,159.586958c-.581543-.2607422-1.0375977-.6240234-1.3681641-1.0878906s-.5014648-1-.5117188-1.6074219h1.5517578c.0532227.5224609.2695312.9619141.6479492,1.3193359.3789062.3574219.9306641.5361328,1.65625.5361328.6933594,0,1.2397461-.1728516,1.6401367-.5195312.3999023-.3466797.5996094-.7919922.5996094-1.3359375,0-.4267578-.1171875-.7734375-.3520508-1.0400391-.234375-.2666016-.527832-.4697266-.8798828-.6083984s-.8266602-.2880859-1.4238281-.4482422c-.7358398-.1914062-1.3256836-.3837891-1.7680664-.5761719-.4428711-.1914062-.8212891-.4931641-1.1357422-.9033203-.3149414-.4111328-.472168-.9628906-.472168-1.65625,0-.6083984.1542969-1.1464844.4638672-1.6162109.309082-.46875.7441406-.8320312,1.3041992-1.0878906s1.2021484-.3837891,1.9277344-.3837891c1.0454102,0,1.9013672.2617188,2.5683594.7841797.6665039.5224609,1.0424805,1.2158203,1.1279297,2.0800781h-1.6000977c-.0537109-.4267578-.2773438-.8027344-.671875-1.1279297-.3950195-.3251953-.9174805-.4882812-1.5683594-.4882812-.6079102,0-1.1040039.1572266-1.487793.4716797-.3842773.3144531-.5761719.7548828-.5761719,1.3203125,0,.4052734.1147461.7363281.3442383.9921875.2290039.2558594.5117188.4501953.8476562.5839844.3364258.1328125.8081055.2851562,1.4160156.4560547.7363281.2021484,1.328125.4023438,1.7763672.5996094.4477539.1972656.8320312.5019531,1.1518555.9121094.3198242.4111328.4799805.9677734.4799805,1.671875,0,.5439453-.144043,1.0556641-.4321289,1.5361328-.2880859.4794922-.7148438.8691406-1.2797852,1.1679688-.5654297.2988281-1.2319336.4482422-2,.4482422-.7358398,0-1.3950195-.1308594-1.9760742-.3925781Z"/>
    <path class="st0" d="M134.0509676,144.7949658l-4.3837891,17.7919922h-1.4399414l4.3676758-17.7919922h1.4560547Z"/>
    <path class="st0" d="M147.6032137,158.6836377h3.9038086v1.1835938h-5.3598633v-11.1523438h1.4560547v9.96875Z"/>
    <path class="st0" d="M164.4347567,148.7148877v11.1523438h-1.4560547v-11.1523438h1.4560547Z"/>
    <path class="st0" d="M185.6027254,159.8672314h-1.4560547l-5.855957-8.8798828v8.8798828h-1.4560547v-11.1679688h1.4560547l5.855957,8.8642578v-8.8642578h1.4560547v11.1679688Z"/>
    <path class="st0" d="M198.1945223,151.3477002c.4902344-.8701172,1.1601562-1.5498047,2.0078125-2.0400391.8486328-.4912109,1.7900391-.7363281,2.8242188-.7363281,1.2158203,0,2.2773438.2929688,3.1845703.8798828.90625.5869141,1.5673828,1.4189453,1.9833984,2.4960938h-1.7441406c-.3095703-.671875-.7548828-1.1894531-1.3359375-1.5517578-.5810547-.3632812-1.2773438-.5439453-2.0878906-.5439453-.7783203,0-1.4775391.1806641-2.0957031.5439453-.6191406.3623047-1.1044922.8769531-1.4560547,1.5439453-.3525391.6660156-.5283203,1.4472656-.5283203,2.34375,0,.8857422.1757812,1.6611328.5283203,2.328125.3515625.6669922.8369141,1.1816406,1.4560547,1.5439453.6181641.3623047,1.3173828.5439453,2.0957031.5439453.8105469,0,1.5068359-.1787109,2.0878906-.5361328s1.0263672-.8720703,1.3359375-1.5439453h1.7441406c-.4160156,1.0664062-1.0771484,1.890625-1.9833984,2.4716797-.9072266.5820312-1.96875.8720703-3.1845703.8720703-1.0341797,0-1.9755859-.2421875-2.8242188-.7275391-.8476562-.4853516-1.5175781-1.1601562-2.0078125-2.0244141-.4902344-.8632812-.7353516-1.8398438-.7353516-2.9277344s.2451172-2.0664062.7353516-2.9355469Z"/>
    <path class="st0" d="M222.4992098,159.2510205c-.8535156-.4853516-1.5283203-1.1621094-2.0244141-2.0322266-.4960938-.8691406-.7431641-1.8476562-.7431641-2.9355469s.2470703-2.0664062.7431641-2.9355469c.4960938-.8701172,1.1708984-1.546875,2.0244141-2.0322266s1.796875-.7285156,2.8320312-.7285156c1.0449219,0,1.9941406.2431641,2.8476562.7285156s1.5253906,1.1601562,2.0166016,2.0234375c.4902344.8642578.7353516,1.8457031.7353516,2.9443359s-.2451172,2.0800781-.7353516,2.9443359c-.4912109.8632812-1.1630859,1.5380859-2.0166016,2.0234375s-1.8027344.7285156-2.8476562.7285156c-1.0351562,0-1.9785156-.2431641-2.8320312-.7285156ZM227.4347567,158.1709423c.6240234-.3623047,1.1152344-.8798828,1.4726562-1.5517578s.5361328-1.4501953.5361328-2.3359375c0-.8964844-.1787109-1.6777344-.5361328-2.34375-.3574219-.6669922-.8457031-1.1816406-1.4638672-1.5439453-.6191406-.3632812-1.3232422-.5439453-2.1123047-.5439453-.7900391,0-1.4931641.1806641-2.1123047.5439453-.6181641.3623047-1.1064453.8769531-1.4638672,1.5439453-.3574219.6660156-.5361328,1.4472656-.5361328,2.34375,0,.8857422.1787109,1.6640625.5361328,2.3359375s.8476562,1.1894531,1.4716797,1.5517578c.6240234.3632812,1.3251953.5439453,2.1044922.5439453.7783203,0,1.4794922-.1806641,2.1035156-.5439453Z"/>
    <path class="st0" d="M244.2267489,158.6836377h3.9033203v1.1835938h-5.359375v-11.1523438h1.4560547v9.96875Z"/>
    <path class="st0" d="M268.3703036,159.8672314h-1.4560547l-5.8554688-8.8798828v8.8798828h-1.4560547v-11.1679688h1.4560547l5.8554688,8.8642578v-8.8642578h1.4560547v11.1679688Z"/>
    <path class="st0" d="M301.4669832,154.2910595c-.6347656.6132812-1.6035156.9199219-2.9042969.9199219h-2.1435547v4.65625h-1.4560547v-11.1523438h3.5996094c1.2587891,0,2.2158203.3046875,2.8720703.9121094.65625.6083984.984375,1.3925781.984375,2.3525391,0,.9277344-.3183594,1.6982422-.9521484,2.3115234ZM300.3546786,153.4834423c.3837891-.3525391.5761719-.8535156.5761719-1.5039062,0-1.3759766-.7900391-2.0644531-2.3681641-2.0644531h-2.1435547v4.0957031h2.1435547c.8105469,0,1.4082031-.1757812,1.7919922-.5273438Z"/>
    <path class="st0" d="M320.7384676,157.3867627h-4.8642578l-.8955078,2.4804688h-1.5361328l4.03125-11.0878906h1.6806641l4.015625,11.0878906h-1.5361328l-.8955078-2.4804688ZM320.322452,156.2031689l-2.0166016-5.6318359-2.015625,5.6318359h4.0322266Z"/>
    <path class="st0" d="M340.7218661,159.8672314l-2.6552734-4.5595703h-1.7597656v4.5595703h-1.4560547v-11.1523438h3.5996094c.8427734,0,1.5546875.1445312,2.1357422.4326172s1.0166016.6767578,1.3046875,1.1679688c.2871094.4902344.4316406,1.0507812.4316406,1.6796875,0,.7685547-.2216797,1.4453125-.6640625,2.0322266s-1.1064453.9755859-1.9921875,1.1679688l2.7998047,4.671875h-1.7441406ZM336.306827,154.1396923h2.1435547c.7890625,0,1.3808594-.1953125,1.7763672-.5839844.3945312-.3896484.5917969-.9101562.5917969-1.5605469,0-.6611328-.1953125-1.1728516-.5839844-1.5361328-.3896484-.3623047-.984375-.5439453-1.7841797-.5439453h-2.1435547v4.2246094Z"/>
    <path class="st0" d="M360.5460848,159.8672314l-4.5917969-5.0878906v5.0878906h-1.4560547v-11.1523438h1.4560547v5.1679688l4.6074219-5.1679688h1.8398438l-5.0556641,5.5839844,5.1035156,5.5683594h-1.9033203Z"/>
  </g>
</svg>